<svg xmlns="http://www.w3.org/2000/svg" width="16" height="16" viewBox="0 0 16 16">
    <g fill="none" fill-rule="evenodd">
        <g fill="#CCC" fill-rule="nonzero">
            <g>
                <path d="M14.857 6.286H9.714V1.143C9.714.512 9.203 0 8.571 0H7.43c-.631 0-1.143.512-1.143 1.143v5.143H1.143C.512 6.286 0 6.798 0 7.429V8.57c0 .632.512 1.143 1.143 1.143h5.143v5.143c0 .631.512 1.143 1.143 1.143H8.57c.632 0 1.143-.512 1.143-1.143V9.714h5.143c.631 0 1.143-.511 1.143-1.143V7.43c0-.631-.512-1.143-1.143-1.143z" transform="translate(-732 -5672) translate(732 5672)"/>
            </g>
        </g>
    </g>
</svg>
