<svg xmlns="http://www.w3.org/2000/svg" width="90" height="90" viewBox="0 0 90 90">
    <g fill="none" fill-rule="evenodd">
        <g>
            <g>
                <g transform="translate(-180 -839) translate(20 799) translate(160 40)">
                    <path d="M0 0H90V90H0z"/>
                    <path fill="#00CAE8" fill-rule="nonzero" d="M48 57h39V10.448C87 6.352 83.657 3 79.571 3H55.43C51.343 3 48 6.352 48 10.448V57z"/>
                    <path fill="#F3F3F1" fill-rule="nonzero" d="M14.172 63h31.656C51.998 63 57 67.959 57 74.077V87H3V74.077C3 67.959 8.002 63 14.172 63z"/>
                    <circle cx="30" cy="35" r="14" fill="#F3F3F1" fill-rule="nonzero"/>
                    <path fill="#F3F3F1" fill-rule="nonzero" d="M59 45v-2.667C59 39.39 61.539 37 64.667 37h5.666C73.461 37 76 39.39 76 42.333V45H59zM48 60.667V57h39v3.667C87 64.718 83.676 68 79.571 68H55.43C51.324 68 48 64.718 48 60.667z"/>
                    <path fill="#00CAE8" fill-rule="nonzero" d="M44 34.907c-6.364.945-10.257-5.635-10.257-5.635-6.588 5.962-14.936 5.817-17.743 5.562C16.412 27.672 22.513 22 30 22s13.626 5.708 14 12.907z"/>
                    <path fill="#D5DBE1" fill-rule="nonzero" d="M23 63h-8.571C8.116 63 3 67.959 3 74.077V87h8.571V74.077C11.571 67.959 16.688 63 23 63zM24.308 35c0-6.257 4.087-11.495 9.692-13.287-1.318-.422-2.695-.713-4.154-.713C22.2 21 16 27.268 16 35s6.2 14 13.846 14c1.459 0 2.836-.291 4.154-.713-5.605-1.792-9.692-7.03-9.692-13.287zM72 37.188c-.466-.11-.944-.188-1.444-.188h-5.778C61.588 37 59 39.39 59 42.333V45h8.667v-2.667c0-2.481 1.845-4.55 4.333-5.145zM56.47 60.667V57H48v3.667C48 64.718 51.37 68 55.53 68H64c-4.16 0-7.53-3.282-7.53-7.333z"/>
                    <path fill="#008DA2" fill-rule="nonzero" d="M64 3h-8.47C51.387 3 48 6.352 48 10.448V57h8.47V10.448C56.47 6.352 59.86 3 64 3zM34 21.692c-1.321-.414-2.702-.692-4.157-.692C22.44 21 16.407 26.709 16 33.917c1.536.143 4.771.209 8.443-.742.614-5.446 4.423-9.877 9.557-11.483z"/>
                    <path fill="#333" fill-rule="nonzero" d="M64 54L90 54 90 60 64 60zM57.188 90H2.812C1.26 90 0 88.74 0 87.187V74.064C0 66.308 6.308 60 14.063 60h31.874C53.694 60 60 66.308 60 74.063v13.124C60 88.74 58.74 90 57.187 90zM5.624 84.375h48.75V74.062c0-4.653-3.784-8.437-8.438-8.437H14.064c-4.654 0-8.438 3.784-8.438 8.438v10.312zM67.5 30c-3.032 0-5.5-2.468-5.5-5.5s2.468-5.5 5.5-5.5 5.5 2.468 5.5 5.5-2.468 5.5-5.5 5.5zM79 45h-5.75v-2.75c0-1.518-1.288-2.75-2.875-2.75h-5.75c-1.587 0-2.875 1.232-2.875 2.75V45H56v-2.75C56 37.7 59.868 34 64.625 34h5.75C75.132 34 79 37.7 79 42.25V45z"/>
                    <path fill="#333" fill-rule="nonzero" d="M79.688 71H67.5v-5.605h12.188c2.583 0 4.687-2.097 4.687-4.671V10.276c0-2.574-2.104-4.67-4.688-4.67H55.314c-2.584 0-4.688 2.096-4.688 4.67v8.707H45v-8.707C45 4.608 49.624 0 55.313 0h24.374C85.377 0 90 4.608 90 10.276v50.448C90 66.392 85.376 71 79.687 71zM43.271 38c-4.393 0-7.646-2.708-9.56-4.896-7.136 5.224-15.218 4.95-17.711 4.705l.53-5.825c2.202.214 9.84.468 15.735-5.197.632-.609 1.494-.89 2.357-.753.855.133 1.604.66 2.04 1.436.022.039 3.056 5.27 7.48 4.611L45 37.863c-.598.094-1.173.137-1.729.137z"/>
                    <path fill="#333" fill-rule="nonzero" d="M30 52c-9.373 0-17-7.627-17-17 0-9.373 7.627-17 17-17 9.373 0 17 7.627 17 17 0 9.373-7.627 17-17 17zm0-28.333c-6.248 0-11.333 5.085-11.333 11.333S23.752 46.333 30 46.333 41.333 41.248 41.333 35 36.248 23.667 30 23.667z"/>
                </g>
            </g>
        </g>
    </g>
</svg>
