<svg xmlns="http://www.w3.org/2000/svg" width="14" height="14" viewBox="0 0 14 14">
    <g fill="none" fill-rule="evenodd">
        <g fill="#666" fill-rule="nonzero">
            <g>
                <path d="M189.809 22.105l-2.727-2.726c-.123-.123-.29-.192-.464-.192h-.446c.755-.965 1.203-2.179 1.203-3.5 0-3.141-2.546-5.687-5.688-5.687-3.141 0-5.687 2.546-5.687 5.688 0 3.141 2.546 5.687 5.688 5.687 1.32 0 2.534-.448 3.5-1.203v.446c0 .175.068.341.19.464l2.727 2.727c.257.257.673.257.927 0l.774-.774c.257-.257.257-.673.003-.93zm-8.121-2.918c-1.934 0-3.5-1.564-3.5-3.5 0-1.933 1.564-3.5 3.5-3.5 1.933 0 3.5 1.565 3.5 3.5 0 1.934-1.565 3.5-3.5 3.5z" transform="translate(-1236 -176) translate(1060 166)"/>
            </g>
        </g>
    </g>
</svg>
