<svg xmlns="http://www.w3.org/2000/svg" width="12" height="13" viewBox="0 0 12 13">
    <g fill="none" fill-rule="evenodd">
        <g>
            <g>
                <g>
                    <path d="M0 0H12V12H0z" transform="translate(-230 -1400) translate(150 1393) translate(80 7.017)"/>
                    <path fill="#2985DB" fill-rule="nonzero" d="M5.091.782l.594-.594c.25-.25.657-.25.906 0l5.195 5.193c.251.252.251.658 0 .906l-5.195 5.196c-.252.251-.658.251-.906 0l-.594-.593c-.254-.254-.248-.669.011-.917l3.22-3.068H.642C.285 6.905 0 6.619 0 6.263v-.855c0-.355.286-.641.641-.641h7.681l-3.22-3.069c-.262-.248-.267-.662-.01-.916z" transform="translate(-230 -1400) translate(150 1393) translate(80 7.017)"/>
                </g>
            </g>
        </g>
    </g>
</svg>
