<svg xmlns="http://www.w3.org/2000/svg" width="26" height="26" viewBox="0 0 26 26">
    <defs>
        <radialGradient id="6ghnug84pa" cx="9.723%" cy="102.737%" r="132.555%" fx="9.723%" fy="102.737%">
            <stop offset="0%" stop-color="#FEC053"/>
            <stop offset="33%" stop-color="#F2203E"/>
            <stop offset="65%" stop-color="#B729A8"/>
            <stop offset="100%" stop-color="#5342D6"/>
        </radialGradient>
        <radialGradient id="1fq6i2qx7b" cx="-22.899%" cy="145.481%" r="239.958%" fx="-22.899%" fy="145.481%">
            <stop offset="0%" stop-color="#FEC053"/>
            <stop offset="33%" stop-color="#F2203E"/>
            <stop offset="65%" stop-color="#B729A8"/>
            <stop offset="100%" stop-color="#5342D6"/>
        </radialGradient>
        <radialGradient id="265c29yk5c" cx="-639.197%" cy="849.841%" r="1333.314%" fx="-639.197%" fy="849.841%">
            <stop offset="0%" stop-color="#FEC053"/>
            <stop offset="33%" stop-color="#F2203E"/>
            <stop offset="65%" stop-color="#B729A8"/>
            <stop offset="100%" stop-color="#5342D6"/>
        </radialGradient>
    </defs>
    <g fill="none" fill-rule="evenodd">
        <g fill-rule="nonzero">
            <g>
                <g>
                    <g>
                        <path fill="url(#6ghnug84pa)" d="M20.432 26H5.564C2.491 25.997.001 23.505 0 20.432V5.564C.003 2.493 2.493.004 5.564 0h14.868C23.505.001 25.997 2.491 26 5.564v14.868c-.001 3.075-2.493 5.567-5.568 5.568zM5.564 3.036C4.17 3.04 3.04 4.17 3.036 5.564v14.868c0 1.397 1.132 2.53 2.528 2.532h14.868c1.398 0 2.532-1.134 2.532-2.532V5.564c-.004-1.396-1.136-2.526-2.532-2.528H5.564z" transform="translate(-681 -303) translate(609 291) translate(60) translate(12 12)"/>
                        <path fill="url(#1fq6i2qx7b)" d="M12.998 20.18c-3.966 0-7.181-3.216-7.181-7.182s3.215-7.181 7.181-7.181 7.181 3.215 7.181 7.181c-.004 3.964-3.217 7.177-7.18 7.181zm0-11.329c-2.29 0-4.147 1.857-4.147 4.147s1.857 4.147 4.147 4.147 4.147-1.857 4.147-4.147c-.002-2.29-1.858-4.145-4.147-4.147z" transform="translate(-681 -303) translate(609 291) translate(60) translate(12 12)"/>
                        <path fill="url(#265c29yk5c)" d="M21.635 6.04c-.002.524-.318.994-.802 1.193-.483.198-1.04.086-1.408-.286-.368-.37-.476-.927-.274-1.41.202-.482.674-.795 1.197-.792.713.003 1.29.583 1.287 1.296z" transform="translate(-681 -303) translate(609 291) translate(60) translate(12 12)"/>
                    </g>
                </g>
            </g>
        </g>
    </g>
</svg>
