<svg xmlns="http://www.w3.org/2000/svg" width="90" height="90" viewBox="0 0 90 90">
    <g fill="none" fill-rule="evenodd">
        <g>
            <g>
                <g transform="translate(-180 -1049) translate(20 1009) translate(160 40)">
                    <path d="M0 0H90V90H0z"/>
                    <path fill="#F3F3F1" fill-rule="nonzero" d="M51.563 28.129h22.102c1.481 0 2.929.438 4.159 1.257l9.36 6.227V7.548c0-2.065-1.68-3.742-3.75-3.742H51.559c-2.07 0-3.75 1.677-3.75 3.742v16.84c.004 2.065 1.684 3.741 3.754 3.741z"/>
                    <ellipse cx="20.625" cy="57.129" fill="#F3F3F1" fill-rule="nonzero" rx="8.438" ry="8.419"/>
                    <path fill="#00CAE8" fill-rule="nonzero" d="M2.813 88v-5.613c0-4.135 3.356-7.484 7.5-7.484h20.624c4.144 0 7.5 3.35 7.5 7.484V88H2.813z"/>
                    <ellipse cx="69.375" cy="57.129" fill="#F3F3F1" fill-rule="nonzero" rx="8.438" ry="8.419"/>
                    <path fill="#00CAE8" fill-rule="nonzero" d="M51.563 88v-5.613c0-4.135 3.356-7.484 7.5-7.484h20.624c4.144 0 7.5 3.35 7.5 7.484V88H51.563zM45.938 35.613H16.334c-1.481 0-2.929.438-4.159 1.257l-9.364 6.227V15.032c0-2.065 1.68-3.742 3.75-3.742h39.376c2.07 0 3.75 1.677 3.75 3.742v16.839c0 2.066-1.68 3.742-3.75 3.742z"/>
                    <path fill="#008DA2" fill-rule="nonzero" d="M10.313 15.032c0-2.065 1.68-3.742 3.75-3.742h-7.5c-2.07 0-3.75 1.677-3.75 3.742v28.065l7.5-4.988V15.032z"/>
                    <path fill="#D5DBE1" fill-rule="nonzero" d="M55.313 24.387V7.548c0-2.065 1.68-3.742 3.75-3.742h-7.5c-2.07 0-3.75 1.677-3.75 3.742v16.84c0 2.065 1.68 3.741 3.75 3.741h7.5c-2.07 0-3.75-1.676-3.75-3.742zM85.328 29.386c-1.234-.82-2.682-1.257-4.16-1.257h-7.5c1.482 0 2.93.438 4.16 1.257l9.36 6.227v-4.988l-1.86-1.239zM19.688 57.129c0-3.3 1.92-6.126 4.687-7.506-1.133-.565-2.396-.913-3.75-.913-4.661 0-8.438 3.768-8.438 8.419 0 4.651 3.777 8.42 8.438 8.42 1.354 0 2.617-.349 3.75-.914-2.767-1.38-4.688-4.21-4.688-7.506zM68.438 57.129c0-3.3 1.92-6.126 4.687-7.506-1.132-.565-2.396-.913-3.75-.913-4.661 0-8.438 3.768-8.438 8.419 0 4.651 3.777 8.42 8.438 8.42 1.354 0 2.618-.349 3.75-.914-2.767-1.38-4.688-4.21-4.688-7.506z"/>
                    <path fill="#008DA2" fill-rule="nonzero" d="M17.813 74.903h-7.5c-4.144 0-7.5 3.35-7.5 7.484V88h7.5v-5.613c0-4.135 3.356-7.484 7.5-7.484zM66.563 74.903h-7.5c-4.144 0-7.5 3.35-7.5 7.484V88h7.5v-5.613c0-4.135 3.356-7.484 7.5-7.484z"/>
                    <path fill="#333" fill-rule="nonzero" d="M87.188 38.42c-.548 0-1.088-.158-1.56-.472l-9.36-6.227c-.773-.516-1.673-.786-2.6-.786H51.563c-3.618 0-6.562-2.937-6.562-6.548V7.548C45 3.938 47.944 1 51.563 1h31.874C87.058 1 90 3.937 90 7.548v28.065c0 1.033-.57 1.983-1.485 2.473-.416.225-.874.333-1.328.333zM51.562 6.612c-.517 0-.937.419-.937.935v16.84c0 .515.42.935.938.935h22.106c2.044 0 4.02.598 5.719 1.728l4.987 3.32V7.547c0-.516-.42-.935-.938-.935H51.564zM2.813 45.903c-.458 0-.912-.108-1.328-.333C.57 45.08 0 44.13 0 43.097V15.032c0-3.61 2.944-6.548 6.563-6.548h28.125v5.613H6.561c-.51 0-.937.426-.937.935v22.834l5.006-3.32c1.65-1.13 3.642-1.74 5.719-1.74h29.587v5.613H16.35c-.926 0-1.838.277-2.576.779l-9.409 6.237c-.465.311-1.009.468-1.553.468zM20.625 68.355c-6.203 0-11.25-5.037-11.25-11.226 0-6.19 5.047-11.226 11.25-11.226s11.25 5.037 11.25 11.226c0 6.19-5.047 11.226-11.25 11.226zm0-16.839c-3.101 0-5.625 2.518-5.625 5.613 0 3.095 2.524 5.613 5.625 5.613s5.625-2.518 5.625-5.613c0-3.095-2.524-5.613-5.625-5.613zM41.25 88h-5.625v-5.613c0-2.578-2.104-4.677-4.688-4.677H10.313c-2.583 0-4.687 2.099-4.687 4.677V88H0v-5.613c0-5.676 4.624-10.29 10.313-10.29h20.624c5.69 0 10.313 4.614 10.313 10.29V88zM69.375 68.355c-6.203 0-11.25-5.037-11.25-11.226 0-6.19 5.047-11.226 11.25-11.226s11.25 5.037 11.25 11.226c0 6.19-5.047 11.226-11.25 11.226zm0-16.839c-3.101 0-5.625 2.518-5.625 5.613 0 3.095 2.524 5.613 5.625 5.613S75 60.224 75 57.129c0-3.095-2.524-5.613-5.625-5.613zM90 88h-5.625v-5.613c0-2.578-2.104-4.677-4.688-4.677H59.064c-2.584 0-4.688 2.099-4.688 4.677V88H48.75v-5.613c0-5.676 4.624-10.29 10.313-10.29h20.624c5.69 0 10.313 4.614 10.313 10.29V88z"/>
                </g>
            </g>
        </g>
    </g>
</svg>
