<svg xmlns="http://www.w3.org/2000/svg" width="100" height="72" viewBox="0 0 100 72">
    <g fill="none" fill-rule="evenodd">
        <g fill-rule="nonzero">
            <g>
                <g fill="#F3F3F1">
                    <path d="M70.322 7.828v6.177l-9.357 4.898V.03l6.893 3.681c1.497.812 2.464 2.403 2.464 4.118zM9.503.03v18.873L.146 14.005V7.828c0-1.715.967-3.306 2.464-4.118L9.503.03z" transform="translate(-670 -151) translate(670 151) translate(14.766 19.234)"/>
                    <path d="M70.322 14.005v31.571c0 2.59-2.09 4.68-4.679 4.68H4.825c-2.59 0-4.679-2.09-4.679-4.68v-31.57l9.357 4.897h.031l22.8 11.917c1.808.936 3.992.936 5.8 0l22.8-11.917h.03l9.358-4.898z" transform="translate(-670 -151) translate(670 151) translate(14.766 19.234)"/>
                </g>
                <path fill="#99EAF6" d="M75.731 8.656v29.481H75.7L52.9 50.054c-1.808.936-3.992.936-5.8 0L24.3 38.137h-.031V8.657c0-3.433 2.807-6.24 6.238-6.24h38.986c3.431 0 6.238 2.807 6.238 6.24z" transform="translate(-670 -151) translate(670 151)"/>
                <path fill="#D5DBE1" d="M82.749 23.035c-.044-.025-.078-.066-.125-.09l-6.893-3.682v18.874l7.018-3.672v-11.43zM21.93 33.24v-6.178c0-1.663.92-3.194 2.339-4.027v-3.772l-6.893 3.681c-1.497.811-2.464 2.402-2.464 4.118v6.177l9.357 4.898v-3.672l-2.34-1.226z" transform="translate(-670 -151) translate(670 151)"/>
                <path fill="#D5DBE1" d="M21.93 64.81v-27.9l-7.018-3.67v31.57c0 2.59 2.09 4.68 4.679 4.68h7.017c-2.589 0-4.678-2.09-4.678-4.68z" transform="translate(-670 -151) translate(670 151)"/>
                <path fill="#46CEE2" d="M31.318 38.137h-.031V8.657c0-3.433 2.807-6.24 6.237-6.24h-7.017c-3.431 0-6.238 2.807-6.238 6.24v29.48h.031l22.8 11.917c1.808.936 3.992.936 5.8 0l.609-.318-22.191-11.599z" transform="translate(-670 -151) translate(670 151)"/>
                <path fill="#39414C" d="M36.745 31.274L63.255 31.274 63.255 35.953 36.745 35.953zM36.745 21.915L63.255 21.915 63.255 26.594 36.745 26.594zM36.745 12.556L50.78 12.556 50.78 17.235 36.745 17.235z" transform="translate(-670 -151) translate(670 151)"/>
                <path fill="#39414C" d="M80.41 71.83H19.59c-3.87 0-7.017-3.148-7.017-7.02V27.062c0-2.577 1.413-4.941 3.69-6.174l6.902-3.687 2.205 4.127-6.893 3.681c-.739.4-1.226 1.208-1.226 2.053V64.81c0 1.292 1.048 2.34 2.34 2.34h60.818c1.292 0 2.34-1.048 2.34-2.34V27.062c0-.845-.487-1.653-1.239-2.059l-6.883-3.675 2.205-4.127 6.893 3.681c2.289 1.235 3.702 3.603 3.702 6.18V64.81c0 3.872-3.147 7.02-7.018 7.02z" transform="translate(-670 -151) translate(670 151)"/>
                <path fill="#39414C" d="M49.997 53.099c-1.366 0-2.73-.321-3.97-.964L13.83 35.31l2.165-4.146L48.182 47.98c1.116.577 2.52.577 3.646-.007l32.177-16.808 2.165 4.146-32.187 16.815c-1.25.648-2.617.973-3.986.973z" transform="translate(-670 -151) translate(670 151)"/>
                <path fill="#39414C" d="M78.07 38.137h-4.678V8.657c0-2.15-1.75-3.9-3.899-3.9H30.507c-2.15 0-3.899 1.75-3.899 3.9v29.48H21.93V8.657c0-4.73 3.845-8.58 8.577-8.58h38.986c4.732 0 8.577 3.85 8.577 8.58v29.48zM.097 67.15L99.903 67.15 99.903 71.829.097 71.829z" transform="translate(-670 -151) translate(670 151)"/>
            </g>
        </g>
    </g>
</svg>
