<svg xmlns="http://www.w3.org/2000/svg" width="90" height="90" viewBox="0 0 90 90">
    <g fill="none" fill-rule="evenodd">
        <g fill-rule="nonzero">
            <g>
                <g transform="translate(-365 -644) translate(280 599) translate(85 45)">
                    <path fill="#F3F3F1" d="M2.812 59.063L58.121 59.063 58.121 75.938 2.812 75.938z"/>
                    <path fill="#00CAE8" d="M82.014 68.265c.147-.862.259-1.736.259-2.64 0-.904-.112-1.778-.259-2.64l4.444-3.3c.723-.54.937-1.556.49-2.359l-2.77-4.965c-.446-.798-1.406-1.117-2.22-.738l-5.02 2.34c-1.302-1.126-2.768-2.026-4.392-2.637L72 45.68c-.09-.919-.836-1.617-1.729-1.617h-5.546c-.892 0-1.642.702-1.728 1.617l-.548 5.647c-1.623.611-3.09 1.511-4.39 2.636l-5.022-2.343c-.813-.379-1.773-.06-2.22.739l-2.77 4.965c-.447.798-.233 1.818.49 2.358l4.444 3.3c-.146.863-.259 1.736-.259 2.64 0 .904.113 1.778.26 2.64l-4.444 3.3c-.724.54-.938 1.556-.492 2.359l2.771 4.965c.447.799 1.407 1.117 2.22.739l5.021-2.34c1.301 1.125 2.768 2.025 4.391 2.636l.548 5.647c.09.92.836 1.617 1.728 1.617h5.546c.893 0 1.642-.701 1.729-1.617l.547-5.647c1.624-.611 3.09-1.511 4.391-2.636l5.021 2.34c.814.379 1.774.06 2.22-.739l2.77-4.965c.447-.799.233-1.819-.49-2.359l-4.444-3.296z"/>
                    <ellipse cx="67.495" cy="65.625" fill="#F3F3F1" rx="6.562" ry="6.563"/>
                    <path fill="#F3F3F1" d="M20.624 2.813L39.372 2.813 39.372 59.063 20.624 59.063z"/>
                    <path fill="#00CAE8" d="M10.312 13.125L20.624 13.125 20.624 59.063 10.312 59.063z"/>
                    <g fill="#D5DBE1">
                        <path d="M0 56.25L8.437 56.25 8.437 73.125 0 73.125zM66.558 62.813c0-2.01.922-3.784 2.343-4.988-1.143-.968-2.602-1.575-4.218-1.575-3.622 0-6.562 2.94-6.562 6.563 0 3.622 2.94 6.562 6.562 6.562 1.616 0 3.075-.608 4.218-1.575-1.42-1.204-2.343-2.977-2.343-4.987zM17.811 0L26.248 0 26.248 56.25 17.811 56.25z" transform="translate(2.812 2.813)"/>
                    </g>
                    <path fill="#008DA2" d="M56.479 73.924c-.447-.799-.233-1.819.49-2.359l4.444-3.3c-.146-.862-.259-1.736-.259-2.64 0-.904.113-1.778.26-2.64l-4.444-3.3c-.724-.54-.938-1.556-.491-2.359l2.084-3.731c-.165.131-.348.233-.506.371l-5.02-2.343c-.814-.38-1.774-.06-2.22.738l-2.775 4.965c-.447.799-.237 1.819.49 2.359l4.444 3.3c-.146.862-.258 1.736-.258 2.64 0 .904.112 1.778.258 2.64l-4.443 3.3c-.724.54-.938 1.556-.491 2.359l2.774 4.965c.447.799 1.407 1.117 2.22.739l5.021-2.34c.158.138.345.24.506.37l-2.084-3.734z"/>
                    <path fill="#00CAE8" d="M10.312 13.125L18.749 13.125 18.749 59.063 10.312 59.063z"/>
                    <path fill="#333" d="M67.495 75c-5.167 0-9.374-4.204-9.374-9.375s4.207-9.375 9.374-9.375c5.167 0 9.375 4.204 9.375 9.375S72.662 75 67.495 75zm0-13.125c-2.066 0-3.75 1.68-3.75 3.75 0 2.07 1.684 3.75 3.75 3.75s3.75-1.68 3.75-3.75c0-2.07-1.684-3.75-3.75-3.75z"/>
                    <path fill="#333" d="M64.72 90c-2.354 0-4.3-1.793-4.53-4.162l-.39-4.005c-.73-.372-1.435-.796-2.114-1.272l-3.461 1.62c-2.175 1.005-4.691.184-5.865-1.916L45.586 75.3c-1.133-2.025-.593-4.601 1.26-5.985l3.123-2.317c-.037-.432-.064-.89-.064-1.37 0-.48.027-.937.064-1.368l-3.116-2.318c-1.86-1.376-2.404-3.952-1.267-5.984l2.77-4.965c1.174-2.097 3.694-2.914 5.858-1.92l3.472 1.623c.679-.476 1.387-.9 2.115-1.271l.39-4.009c.229-2.373 2.178-4.166 4.533-4.166h5.546c2.355 0 4.301 1.792 4.53 4.163l.39 4.005c.731.37 1.44.794 2.118 1.267l3.461-1.616c2.175-1.005 4.691-.184 5.865 1.916l2.775 4.965c1.136 2.032.592 4.609-1.268 5.989l-3.116 2.313c.038.432.064.89.064 1.37 0 .48-.026.937-.064 1.368l3.116 2.31c1.86 1.391 2.404 3.968 1.268 5.993l-2.771 4.964c-1.174 2.097-3.694 2.914-5.857 1.92l-3.473-1.623c-.678.476-1.387.9-2.114 1.271l-.39 4.009C74.57 88.207 72.62 90 70.266 90H64.72zm.983-5.625h3.585l.457-4.725c.105-1.065.803-1.98 1.808-2.363 1.267-.476 2.46-1.192 3.54-2.13.84-.727 2.024-.885 3.033-.42l4.083 1.91 1.868-3.346-3.739-2.775c-.851-.633-1.271-1.687-1.095-2.733.12-.706.218-1.425.218-2.168 0-.743-.098-1.463-.218-2.167-.176-1.043.244-2.1 1.095-2.73l3.739-2.78-1.868-3.344-4.083 1.909c-1.009.46-2.194.303-3.034-.424-1.072-.934-2.265-1.646-3.536-2.127-1.005-.382-1.702-1.297-1.807-2.362l-.458-4.725h-3.584l-.462 4.725c-.105 1.065-.802 1.98-1.807 2.362-1.267.477-2.46 1.193-3.54 2.13-.84.724-2.032.886-3.033.42l-4.084-1.908-1.867 3.345 3.738 2.779c.852.63 1.272 1.683 1.095 2.73-.12.704-.217 1.424-.217 2.167 0 .743.097 1.463.217 2.168.177 1.042-.243 2.1-1.095 2.733l-3.738 2.775 1.867 3.345 4.084-1.909c1.005-.46 2.193-.3 3.033.42 1.08.938 2.269 1.654 3.54 2.13 1.005.383 1.702 1.298 1.807 2.363l.458 4.725zM39.372 78.75H2.812C1.26 78.75 0 77.49 0 75.937V59.064c0-1.553 1.26-2.813 2.812-2.813h36.56v5.625H5.625v11.25h33.747v5.625z"/>
                    <path fill="#333" d="M42.185 59.063H36.56V5.624H23.436v53.438H17.81V2.813C17.811 1.26 19.071 0 20.624 0h18.748c1.553 0 2.813 1.26 2.813 2.813v56.25z"/>
                    <path fill="#333" d="M13.124 59.063H7.5V13.124c0-1.553 1.26-2.813 2.813-2.813h10.312v5.626h-7.5v43.124z"/>
                    <path fill="#333" d="M10.312 21.563L20.624 21.563 20.624 27.188 10.312 27.188zM10.312 32.813L20.624 32.813 20.624 38.438 10.312 38.438zM10.312 44.063L20.624 44.063 20.624 49.688 10.312 49.688zM29.998 44.063L42.185 44.063 42.185 49.688 29.998 49.688zM29.998 32.813L42.185 32.813 42.185 38.438 29.998 38.438zM29.998 21.563L42.185 21.563 42.185 27.188 29.998 27.188zM29.998 10.313L42.185 10.313 42.185 15.938 29.998 15.938z"/>
                </g>
            </g>
        </g>
    </g>
</svg>
