<svg xmlns="http://www.w3.org/2000/svg" width="12" height="12" viewBox="0 0 12 12">
    <g fill="none" fill-rule="evenodd">
        <g>
            <g>
                <g>
                    <path d="M0 0H12V12H0z" transform="translate(-1278 -4429) translate(1156 4422) translate(122 7)"/>
                    <path fill="#CCC" fill-rule="nonzero" d="M5.091.8l.594-.594c.25-.251.657-.251.906 0l5.195 5.193c.251.25.251.657 0 .906L6.591 11.5c-.252.251-.658.251-.906 0l-.594-.593c-.254-.254-.248-.668.011-.917l3.22-3.068H.642C.285 6.922 0 6.636 0 6.281v-.856c0-.355.286-.641.641-.641h7.681l-3.22-3.068c-.262-.249-.267-.663-.01-.917z" transform="translate(-1278 -4429) translate(1156 4422) translate(122 7)"/>
                </g>
            </g>
        </g>
    </g>
</svg>
