<svg xmlns="http://www.w3.org/2000/svg" width="30" height="40" viewBox="0 0 30 40">
    <g fill="none" fill-rule="evenodd">
        <g fill-rule="nonzero">
            <g>
                <g>
                    <path fill="#99EAF6" d="M4.988 4.343c.35.315.876.313 1.224-.004l3.475-3.163c.35-.318.878-.318 1.227 0l3.472 3.16c.35.318.878.318 1.228 0l3.472-3.16c.349-.318.877-.318 1.226 0l3.476 3.163c.348.317.874.319 1.224.004l2.556-2.302c.381-.343.963-.306 1.3.082.148.17.23.391.23.62v34.515c0 .517-.413.936-.92.936-.225 0-.442-.084-.61-.235l-2.556-2.302c-.35-.315-.876-.313-1.224.004l-3.476 3.163c-.349.318-.877.318-1.226 0l-3.472-3.16c-.35-.318-.878-.318-1.228 0l-3.472 3.16c-.349.318-.878.318-1.227 0L6.212 35.66c-.348-.317-.874-.319-1.224-.004L2.43 37.959c-.38.343-.962.306-1.299-.082-.148-.17-.23-.391-.23-.62V2.743c0-.517.412-.936.92-.936.225 0 .441.084.61.235l2.556 2.302z" transform="translate(-698 -279) translate(20 252) translate(678 27)"/>
                    <g fill="#39414C">
                        <path d="M28.924 1.034c-.658-.308-1.432-.188-1.97.305l-2.555 2.302L20.926.479C20.228-.16 19.17-.16 18.472.478L15 3.638 11.527.478c-.697-.637-1.755-.637-2.453 0L5.598 3.642 3.04 1.339C2.287.657 1.132.726.461 1.494c-.3.344-.464.788-.461 1.248v34.516c-.006 1.028.808 1.867 1.819 1.874.452.002.89-.165 1.227-.471l2.555-2.302 3.473 3.162c.697.638 1.755.639 2.454.001L15 36.362l3.472 3.16c.698.637 1.756.637 2.453 0l3.477-3.164 2.556 2.302c.754.683 1.91.614 2.58-.154.3-.343.465-.788.462-1.248V2.742c.009-.737-.414-1.408-1.076-1.708zm-3.307 33.921c-.699-.628-1.75-.625-2.444.008l-3.475 3.163-3.472-3.161c-.7-.635-1.755-.635-2.454 0l-3.471 3.16-3.477-3.163c-.693-.632-1.741-.635-2.437-.006l-2.546 2.3V26.469L1.83 2.743l2.551 2.302c.7.628 1.75.625 2.445-.007L10.3 1.874l3.473 3.161c.699.635 1.754.635 2.453 0l3.472-3.16 3.476 3.163c.693.632 1.742.635 2.437.007l2.547-2.302V26.47l.01 10.788-2.552-2.302z" transform="translate(-698 -279) translate(20 252) translate(678 27)"/>
                        <path d="M23.723 19.063H6.277c-.508 0-.92.42-.92.937 0 .517.412.937.92.937h17.446c.508 0 .92-.42.92-.937 0-.517-.412-.937-.92-.937zM6.277 15.317h9.164c.508 0 .92-.42.92-.937 0-.517-.412-.937-.92-.937H6.277c-.508 0-.92.42-.92.937 0 .517.412.937.92.937zM23.723 24.683H6.277c-.508 0-.92.42-.92.937 0 .517.412.937.92.937h17.446c.508 0 .92-.42.92-.937 0-.517-.412-.937-.92-.937z" transform="translate(-698 -279) translate(20 252) translate(678 27)"/>
                    </g>
                </g>
            </g>
        </g>
    </g>
</svg>
