<svg xmlns="http://www.w3.org/2000/svg" width="15" height="18" viewBox="0 0 15 18">
    <g fill="none" fill-rule="evenodd">
        <g fill="#81909F" fill-rule="nonzero">
            <g>
                <g>
                    <g>
                        <path d="M10.776 0h.127c.101 1.257-.378 2.196-.962 2.876-.572.675-1.355 1.33-2.622 1.231-.085-1.239.396-2.108.978-2.787C8.837.688 9.827.125 10.776 0zM14.611 13.082v.035c-.356 1.079-.864 2.003-1.484 2.86-.565.78-1.259 1.827-2.497 1.827-1.07 0-1.78-.688-2.877-.706-1.16-.02-1.797.575-2.858.724h-.361c-.779-.112-1.407-.729-1.865-1.285C1.319 14.895.275 12.775.08 10.06v-.797c.083-1.942 1.026-3.522 2.28-4.287.663-.407 1.573-.754 2.587-.599.434.067.878.216 1.267.363.368.142.83.393 1.266.38.296-.009.59-.163.888-.272.874-.315 1.73-.677 2.858-.507 1.357.205 2.32.808 2.914 1.738-1.147.73-2.054 1.83-1.9 3.71.138 1.706 1.13 2.705 2.37 3.293z" transform="translate(-812 -4517) translate(780 4504) translate(32 12) translate(0 1)"/>
                    </g>
                </g>
            </g>
        </g>
    </g>
</svg>
