<svg xmlns="http://www.w3.org/2000/svg" xmlns:xlink="http://www.w3.org/1999/xlink" width="30" height="22" viewBox="0 0 30 22">
    <defs>
        <path id="ajq8zte5va" d="M0 0L29.858 0 29.858 21.129 0 21.129z"/>
    </defs>
    <g fill="none" fill-rule="evenodd">
        <g>
            <g>
                <g>
                    <g transform="translate(-739 -305) translate(609 291) translate(120) translate(10 14)">
                        <mask id="9wozqbchvb" fill="#fff">
                            <use xlink:href="#ajq8zte5va"/>
                        </mask>
                        <path fill="red" d="M11.904 15.074V5.99l7.73 4.541-7.73 4.543m17.932-7.797c-.012-.353-.03-.707-.057-1.06-.115-1.496-.282-3.21-1.27-4.407C27.661.785 26.35.554 25.106.413 23.531.235 21.948.127 20.364.066c-3.209-.122-6.421-.05-9.63.02C9.084.123 7.435.16 5.79.29 3.772.451 1.696.747.756 2.764c-.845 1.811-.74 4.11-.75 6.058-.01 1.747-.016 3.495.054 5.24.091 2.265.226 5.216 2.67 6.21 1.306.53 2.883.649 4.277.74 1.478.096 2.96.084 4.44.106 3.103.046 6.207-.06 9.31-.122 2.155-.043 4.368-.067 6.43-.77 1.78-.608 2.245-2.538 2.485-4.211.24-1.663.179-3.35.176-5.025-.002-1.237.03-2.476-.012-3.713" mask="url(#9wozqbchvb)"/>
                    </g>
                </g>
            </g>
        </g>
    </g>
</svg>
