<svg xmlns="http://www.w3.org/2000/svg" width="40" height="40" viewBox="0 0 40 40">
    <g fill="none" fill-rule="evenodd">
        <g fill-rule="nonzero">
            <g>
                <g>
                    <g transform="translate(-158 -360) translate(118 219) translate(20 121) translate(20 20)">
                        <g fill="#F3F3F1">
                            <path d="M7.5 3.754V2.503C7.5 1.12 6.38 0 5 0H2.5C1.12 0 0 1.121 0 2.503v1.251h7.5zM37.5 3.754V2.503C37.5 1.12 36.38 0 35 0h-2.5C31.12 0 30 1.121 30 2.503v1.251h7.5zM22.5 3.754V2.503C22.5 1.12 21.38 0 20 0h-2.5C16.12 0 15 1.121 15 2.503v1.251h7.5z" transform="translate(1.25 36.246)"/>
                        </g>
                        <path fill="#99EAF6" d="M14.222 12.052L12.917 5.099 16.738 6.797 20 1.206 23.262 6.797 27.083 5.099 25.778 12.052z"/>
                        <path fill="#D5DBE1" d="M6.875 36.334c-.202-.052-.408-.088-.625-.088h-2.5c-1.38 0-2.5 1.121-2.5 2.503V40H5v-1.251c0-1.165.798-2.136 1.875-2.415zM36.875 36.334c-.202-.052-.408-.088-.625-.088h-2.5c-1.38 0-2.5 1.121-2.5 2.503V40H35v-1.251c0-1.165.798-2.136 1.875-2.415zM21.875 36.334c-.202-.052-.408-.088-.625-.088h-2.5c-1.38 0-2.5 1.121-2.5 2.503V40H20v-1.251c0-1.165.798-2.136 1.875-2.415z"/>
                        <path fill="#46CEE2" d="M16.738 6.797L12.917 5.099 14.222 12.052 17.972 12.052 16.925 6.479z"/>
                        <path fill="#39414C" d="M36.25 24.983h-2.5v-4.589c0-.23-.187-.417-.417-.417H6.667c-.23 0-.417.187-.417.417v4.589h-2.5v-4.589c0-1.61 1.308-2.92 2.917-2.92h26.666c1.609 0 2.917 1.31 2.917 2.92v4.589z"/>
                        <path fill="#39414C" d="M18.75 11.634L21.25 11.634 21.25 24.983 18.75 24.983z"/>
                        <ellipse cx="20" cy="30.823" fill="#39414C" rx="2.5" ry="2.503"/>
                        <path fill="#39414C" d="M25 40h-2.5v-1.251c0-.691-.56-1.252-1.25-1.252h-2.5c-.69 0-1.25.56-1.25 1.252V40H15v-1.251c0-2.071 1.682-3.755 3.75-3.755h2.5c2.068 0 3.75 1.684 3.75 3.755V40z"/>
                        <ellipse cx="35" cy="30.823" fill="#39414C" rx="2.5" ry="2.503"/>
                        <path fill="#39414C" d="M40 40h-2.5v-1.251c0-.691-.56-1.252-1.25-1.252h-2.5c-.69 0-1.25.56-1.25 1.252V40H30v-1.251c0-2.071 1.682-3.755 3.75-3.755h2.5c2.068 0 3.75 1.684 3.75 3.755V40z"/>
                        <ellipse cx="5" cy="30.823" fill="#39414C" rx="2.5" ry="2.503"/>
                        <path fill="#39414C" d="M10 40H7.5v-1.251c0-.691-.56-1.252-1.25-1.252h-2.5c-.69 0-1.25.56-1.25 1.252V40H0v-1.251c0-2.071 1.682-3.755 3.75-3.755h2.5c2.068 0 3.75 1.684 3.75 3.755V40zM25.778 13.303H14.22c-.602 0-1.117-.429-1.228-1.02l-1.305-6.952c-.085-.458.088-.925.453-1.213.365-.287.858-.352 1.283-.162l2.8 1.244L18.92.577c.45-.77 1.71-.77 2.16 0L23.777 5.2l2.8-1.244c.425-.19.918-.125 1.283.162.365.288.538.755.453 1.213l-1.305 6.953c-.111.59-.628 1.019-1.23 1.019zM15.258 10.8h9.484l.673-3.59-1.648.732c-.585.255-1.267.037-1.587-.514L20 3.688 17.818 7.43c-.323.55-1.006.769-1.586.514l-1.649-.733.675 3.59z"/>
                    </g>
                </g>
            </g>
        </g>
    </g>
</svg>
