<svg xmlns="http://www.w3.org/2000/svg" width="50" height="42" viewBox="0 0 50 42">
    <g fill="none" fill-rule="evenodd">
        <g fill-rule="nonzero">
            <g>
                <g>
                    <g>
                        <g>
                            <path fill="#F3F3F1" d="M42.517 8.37H4.162c-2.28 0-4.146 1.88-4.146 4.178v21.93c0 2.297 1.866 4.177 4.147 4.177h38.354c2.28 0 4.146-1.88 4.146-4.177v-21.93c0-2.298-1.865-4.177-4.146-4.177z" transform="translate(-470 -385) translate(420 208) translate(20 132) translate(30 45) translate(1.587 1.566)"/>
                            <path fill="#D5DBE1" d="M4.68 34.478v-21.93c0-2.298 1.867-4.177 4.147-4.177H4.163c-2.28 0-4.147 1.88-4.147 4.177v21.93c0 2.297 1.866 4.177 4.147 4.177h4.664c-2.28 0-4.146-1.88-4.146-4.177z" transform="translate(-470 -385) translate(420 208) translate(20 132) translate(30 45) translate(1.587 1.566)"/>
                            <path fill="#99EAF6" d="M13.21 22.17L6.246 24.014 8.079 17.001 24.936 0.016 30.067 5.186z" transform="translate(-470 -385) translate(420 208) translate(20 132) translate(30 45) translate(1.587 1.566)"/>
                            <path fill="#46CEE2" d="M12.744 18.045L27.787 2.888 24.936 0.016 8.079 17.001 6.246 24.014 11.552 22.608z" transform="translate(-470 -385) translate(420 208) translate(20 132) translate(30 45) translate(1.587 1.566)"/>
                        </g>
                        <g fill="#39414C">
                            <path d="M44.056 41.772H5.7C2.556 41.772 0 39.194 0 36.028v-21.93c0-3.168 2.556-5.744 5.701-5.744h4.5v3.133H5.7c-1.428 0-2.591 1.172-2.591 2.61v21.931c0 1.439 1.163 2.61 2.591 2.61h38.355c1.428 0 2.591-1.171 2.591-2.61v-21.93c0-1.44-1.163-2.61-2.591-2.61H35.41V8.353h8.646c3.145 0 5.701 2.576 5.701 5.744v21.93c0 3.166-2.558 5.744-5.701 5.744z" transform="translate(-470 -385) translate(420 208) translate(20 132) translate(30 45) translate(.049 .016)"/>
                            <path d="M7.785 27.133c-.406 0-.805-.161-1.099-.46-.39-.392-.545-.967-.404-1.506l1.833-7.015c.07-.27.209-.514.404-.71L25.379.457c.29-.292.685-.457 1.096-.457.412 0 .808.165 1.099.46l5.13 5.17c.608.613.608 1.605 0 2.217L15.847 24.829c-.195.196-.438.336-.703.407l-6.964 1.849c-.129.031-.263.048-.394.048zm3.228-7.776l-1.047 4.01 3.978-1.057L29.406 6.736 26.475 3.78 11.013 19.357zM30.58 18.797L41.983 18.797 41.983 21.93 30.58 21.93zM7.775 29.24L41.983 29.24 41.983 32.373 7.775 32.373z" transform="translate(-470 -385) translate(420 208) translate(20 132) translate(30 45) translate(.049 .016)"/>
                        </g>
                    </g>
                </g>
            </g>
        </g>
    </g>
</svg>
