<svg xmlns="http://www.w3.org/2000/svg" width="100" height="70" viewBox="0 0 100 70">
    <g fill="none" fill-rule="evenodd">
        <g fill-rule="nonzero">
            <g>
                <g>
                    <path fill="#F3F3F1" d="M78.85 64.35h-57.7c-3.446 0-6.238-2.802-6.238-6.261v-46.96h70.176v46.96c0 3.46-2.792 6.261-6.238 6.261z" transform="translate(-766 -339) translate(703 339) translate(63)"/>
                    <path fill="#99EAF6" d="M85.088 11.129H14.912V6.433c0-3.46 2.792-6.262 6.238-6.262h57.7c3.446 0 6.238 2.802 6.238 6.262v4.696zM66.374 15.825c-8.368.156-17.581 5.14-23.292 11.762l-8.695 9.689 10.617 10.657 9.653-8.728c6.596-5.733 11.561-14.98 11.717-23.38z" transform="translate(-766 -339) translate(703 339) translate(63)"/>
                    <path fill="#2FDF84" d="M54.31 39.511c-.096 5.535-1.481 11.578-5.336 15.447l-2.084-8.74 7.42-6.707zM34.003 54.053c-1.578 1.584-9.734 4.036-9.734 4.036s2.442-8.187 4.02-9.771c1.578-1.584 4.136-1.584 5.714 0 1.575 1.584 1.575 4.151 0 5.735zM42.777 27.934c-5.515.097-11.534 1.487-15.39 5.357l8.709 2.09 6.68-7.447z" transform="translate(-766 -339) translate(703 339) translate(63)"/>
                    <path fill="#46CEE2" d="M54.31 39.511c-.096 5.535-1.481 11.578-5.336 15.447l-2.084-8.74 7.42-6.707z" transform="translate(-766 -339) translate(703 339) translate(63)"/>
                    <path fill="#46CEE2" d="M41.404 37.276l8.696-9.69c4.11-4.767 10.046-8.656 16.165-10.534.031-.41.1-.824.106-1.23-8.368.156-17.581 5.14-23.292 11.761l-8.695 9.69L45 47.93l3.693-3.338-7.289-7.316zM34.636 49.276c-.18-.335-.352-.676-.633-.958-1.578-1.584-4.136-1.584-5.714 0-1.578 1.584-4.02 9.77-4.02 9.77s5.043-1.518 7.963-2.936c.667-1.96 1.58-4.423 2.404-5.876z" transform="translate(-766 -339) translate(703 339) translate(63)"/>
                    <path fill="#46CEE2" d="M34.405 33.294c1.981-1.988 4.532-3.312 7.292-4.151l1.083-1.206c-5.515.097-11.534 1.487-15.389 5.357l8.708 2.091 1.244-1.387-2.938-.704z" transform="translate(-766 -339) translate(703 339) translate(63)"/>
                    <path fill="#D5DBE1" d="M22.71 58.089v-46.96h-7.798v46.96c0 3.46 2.792 6.261 6.238 6.261h7.797c-3.446 0-6.237-2.802-6.237-6.261z" transform="translate(-766 -339) translate(703 339) translate(63)"/>
                    <path fill="#46CEE2" d="M28.168.171H21.15c-3.446 0-6.238 2.802-6.238 6.262v4.696h7.018V6.433c0-3.46 2.791-6.262 6.238-6.262z" transform="translate(-766 -339) translate(703 339) translate(63)"/>
                    <path fill="#39414C" d="M35.55 37.67l-8.708-2.09c-.823-.198-1.475-.83-1.706-1.644-.23-.82-.003-1.697.596-2.298 3.752-3.773 9.793-5.92 17-6.049l.085 4.696c-2.436.044-6.319.395-9.768 1.957l3.586.86-1.085 4.568z" transform="translate(-766 -339) translate(703 339) translate(63)"/>
                    <path fill="#39414C" d="M45 50.28c-.598 0-1.197-.228-1.653-.688L32.734 38.938c-.88-.882-.917-2.3-.084-3.23l8.695-9.69c6.413-7.438 16.23-12.372 24.986-12.541.623.018 1.247.234 1.7.688.452.454.698 1.068.686 1.707-.169 8.787-5.084 18.643-12.53 25.11L46.57 49.68c-.446.4-1.007.6-1.569.6zm-7.388-13.089l7.473 7.502 8-7.239c5.68-4.933 9.768-12.313 10.732-19.072-6.734.97-14.082 5.066-18.97 10.742l-7.235 8.067z" transform="translate(-766 -339) translate(703 339) translate(63)"/>
                    <path fill="#39414C" d="M48.97 57.306c-.211 0-.427-.028-.635-.088-.815-.231-1.441-.886-1.638-1.712l-2.083-8.74 4.55-1.097.858 3.6c1.556-3.459 1.905-7.36 1.95-9.805l4.678.085c-.128 7.238-2.268 13.299-6.026 17.065-.443.451-1.042.692-1.653.692zM24.269 60.437c-.611 0-1.21-.241-1.653-.689-.608-.61-.836-1.506-.586-2.332.786-2.633 2.807-8.951 4.61-10.76 2.485-2.496 6.53-2.493 9.022-.004 2.483 2.502 2.483 6.562.003 9.06h-.003c-1.8 1.807-8.096 3.839-10.72 4.628-.22.062-.448.097-.673.097zm6.877-10.958c-.436 0-.87.17-1.204.501-.43.473-1.2 2.276-1.977 4.399 2.118-.78 3.895-1.55 4.388-1.994.655-.667.652-1.747-.01-2.411-.327-.329-.76-.495-1.197-.495z" transform="translate(-766 -339) translate(703 339) translate(63)"/>
                    <path fill="#39414C" d="M78.85 69.829h-57.7c-4.731 0-8.577-3.86-8.577-8.61V9.563c0-4.749 3.846-8.61 8.577-8.61h57.7c4.731 0 8.577 3.861 8.577 8.61V61.22c0 4.75-3.846 8.61-8.577 8.61zm-57.7-64.18c-2.149 0-3.899 1.757-3.899 3.914V61.22c0 2.157 1.75 3.914 3.9 3.914H78.85c2.149 0 3.899-1.757 3.899-3.914V9.563c0-2.157-1.75-3.913-3.9-3.913H21.15z" transform="translate(-766 -339) translate(703 339) translate(63)"/>
                    <path fill="#39414C" d="M14.912 11.911L44.542 11.911 44.542 16.607 14.912 16.607zM74.172 11.911L84.308 11.911 84.308 16.607 74.172 16.607zM.097 65.133L99.903 65.133 99.903 69.829.097 69.829z" transform="translate(-766 -339) translate(703 339) translate(63)"/>
                </g>
            </g>
        </g>
    </g>
</svg>
