<svg xmlns="http://www.w3.org/2000/svg" width="32" height="27" viewBox="0 0 32 27">
    <g fill="none" fill-rule="evenodd">
        <g fill="#2FB301">
            <g>
                <g>
                    <path d="M17.651 9.62c-.352 0-.656.126-.906.384-.251.255-.377.564-.377.928 0 .364.126.672.377.928.25.256.554.384.906.384.36 0 .665-.128.92-.384.257-.256.385-.564.385-.928 0-.364-.128-.673-.384-.928-.256-.258-.562-.384-.92-.384M24.957 9.63c-.353 0-.655.13-.907.384-.25.256-.376.566-.376.93 0 .363.126.672.376.928.252.256.554.384.907.384.358 0 .666-.128.92-.384.256-.256.384-.565.384-.928 0-.364-.128-.674-.383-.93-.255-.254-.563-.383-.921-.383M6.697 9.63c-.354 0-.657.13-.907.384-.251.256-.376.566-.376.93 0 .363.125.672.376.928.25.256.553.384.907.384.358 0 .665-.128.921-.384s.383-.565.383-.928c0-.364-.127-.674-.383-.93-.256-.254-.563-.383-.92-.383" transform="translate(-618 -304) translate(609 291) translate(9 13)"/>
                    <path d="M28.08 12.903c0 1.423-.27 2.29-.905 2.894-.754.716-1.831.767-2.737.638v-1.472c.756.076 1.797-.42 1.795-1.4v-.378h-.023c-.424.584-1.043.798-1.866.798-.763 0-1.425-.282-1.873-.807-.447-.525-.672-1.227-.672-2.11 0-.989.25-1.774.75-2.355.498-.58 1.209-.851 2.023-.851.728 0 1.187.176 1.638.584h.023v-.443h1.846v4.902zm-7.453-.805c-.16.362-.392.688-.697.972-.302.282-.647.498-1.038.647-.39.15-.804.226-1.24.226-.425 0-.832-.076-1.218-.226-.388-.15-.733-.365-1.04-.647-.313-.297-.55-.623-.711-.984-.161-.358-.24-.74-.24-1.142 0-.403.079-.784.24-1.144.161-.36.398-.687.711-.984.307-.282.652-.497 1.04-.646.386-.15.793-.226 1.219-.226.435 0 .849.075 1.24.226.39.149.735.364 1.037.646.305.286.537.61.697.973.158.362.238.747.238 1.155 0 .406-.08.79-.238 1.154zm-7.437 1.536h-1.896V8.62c0-1.157-.915-1.309-.915-1.309V5.303s2.657.163 2.81 3.378v4.953zM9.2 12.922c-.49.553-1.242.787-2.061.787-.741 0-1.281-.224-1.681-.529h-.026v.394H3.576V5.47h1.857v3.096h.026c.502-.427 1.169-.572 1.958-.599.672-.023 1.373.397 1.793.883.418.484.724 1.243.724 2.084 0 .913-.242 1.436-.733 1.988zM28.205 0H3.45C1.553 0 0 1.553 0 3.452v13.997c0 1.898 1.553 3.452 3.45 3.452h9.721s1.877 5.124 2.561 5.124c.686 0 2.716-5.124 2.716-5.124h9.757c1.899 0 3.45-1.554 3.45-3.452V3.452c0-1.9-1.551-3.452-3.45-3.452z" transform="translate(-618 -304) translate(609 291) translate(9 13)"/>
                </g>
            </g>
        </g>
    </g>
</svg>
