<svg xmlns="http://www.w3.org/2000/svg" width="120" height="90" viewBox="0 0 120 90">
    <g fill="none" fill-rule="evenodd">
        <g fill-rule="nonzero">
            <g>
                <g transform="translate(-970 -641) translate(900 599) translate(70 42)">
                    <circle cx="88.125" cy="61.875" r="6.563" fill="#F3F3F1"/>
                    <path fill="#F3F3F1" d="M102.188 90v-4.688c0-4.143-3.357-7.5-7.5-7.5H81.561c-4.143 0-7.5 3.357-7.5 7.5V90h28.126z"/>
                    <circle cx="31.875" cy="61.875" r="6.563" fill="#F3F3F1"/>
                    <path fill="#F3F3F1" d="M45.938 90v-4.688c0-4.143-3.357-7.5-7.5-7.5H25.312c-4.143 0-7.5 3.357-7.5 7.5V90h28.125zM75.338 68.625c-4.613 2.287-9.825 3.563-15.338 3.563-19.163 0-34.688-15.526-34.688-34.688H60l15.338 31.125z"/>
                    <path fill="#00CAE8" d="M94.688 37.5c0 13.65-7.876 25.462-19.35 31.125L60 37.5V2.812c19.162 0 34.688 15.525 34.688 34.688zM60 2.813V37.5H25.312C25.313 18.337 40.837 2.812 60 2.812z"/>
                    <path fill="#D5DBE1" d="M90 61.875c0-2.01.922-3.784 2.344-4.987-1.144-.968-2.603-1.575-4.219-1.575-3.623 0-6.563 2.94-6.563 6.562 0 3.623 2.94 6.563 6.563 6.563 1.616 0 3.075-.608 4.219-1.576C90.923 65.66 90 63.886 90 61.875zM90 77.813h-8.438c-4.143 0-7.5 3.356-7.5 7.5V90H82.5v-4.688c0-4.143 3.356-7.5 7.5-7.5zM33.75 61.875c0-2.01.922-3.784 2.344-4.987-1.144-.968-2.603-1.575-4.219-1.575-3.622 0-6.563 2.94-6.563 6.562 0 3.623 2.94 6.563 6.563 6.563 1.616 0 3.075-.608 4.219-1.576-1.422-1.203-2.344-2.977-2.344-4.987zM33.75 77.813h-8.438c-4.143 0-7.5 3.356-7.5 7.5V90h8.438v-4.688c0-4.143 3.356-7.5 7.5-7.5z"/>
                    <path fill="#D5DBE1" d="M33.75 37.5h-8.438c0 19.163 15.525 34.688 34.688 34.688 1.451 0 2.88-.102 4.282-.27C47.085 69.858 33.75 55.252 33.75 37.5z"/>
                    <path fill="#008DA2" d="M68.438 37.5V3.889C65.734 3.21 62.918 2.813 60 2.813V37.5l15.338 31.125c2.298-1.136 4.406-2.576 6.382-4.17L68.438 37.5zM60 3.889V2.813c-19.163 0-34.688 15.524-34.688 34.687h8.438C33.75 21.255 44.925 7.661 60 3.889z"/>
                    <path fill="#333" d="M60 40.313H25.312v-5.626h31.875V2.814h5.626V37.5c0 1.553-1.26 2.813-2.813 2.813z"/>
                    <path fill="#333" d="M62.51 36.274L68.137 36.274 68.137 60.42 62.51 60.42z" transform="rotate(-25.899 65.324 48.347)"/>
                    <path fill="#333" d="M95.865 48.413l-5.456-1.37.686-2.73c.517-2.062.78-4.357.78-6.813C91.875 19.924 77.576 5.625 60 5.625S28.125 19.924 28.125 37.5c0 2.456.262 4.751.78 6.814l.686 2.73-5.456 1.369-.686-2.73c-.63-2.513-.949-5.27-.949-8.183C22.5 16.823 39.322 0 60 0c20.677 0 37.5 16.823 37.5 37.5 0 2.914-.319 5.67-.949 8.186l-.686 2.727zM60 75c-4.575 0-9.03-.806-13.249-2.392l-2.632-.994 1.98-5.261 2.629.99c7.17 2.696 15.375 2.696 22.544 0l2.63-.99 1.98 5.26-2.633.995C69.03 74.194 64.575 75 60 75zM31.875 71.25c-5.171 0-9.375-4.204-9.375-9.375s4.204-9.375 9.375-9.375 9.375 4.204 9.375 9.375-4.204 9.375-9.375 9.375zm0-13.125c-2.07 0-3.75 1.68-3.75 3.75 0 2.07 1.68 3.75 3.75 3.75 2.07 0 3.75-1.68 3.75-3.75 0-2.07-1.68-3.75-3.75-3.75zM48.75 90h-5.625v-4.688c0-2.583-2.104-4.687-4.688-4.687H25.313c-2.584 0-4.688 2.104-4.688 4.688V90H15v-4.688C15 79.624 19.624 75 25.313 75h13.125c5.688 0 10.312 4.624 10.312 10.313V90zM88.125 71.25c-5.171 0-9.375-4.204-9.375-9.375s4.204-9.375 9.375-9.375 9.375 4.204 9.375 9.375-4.204 9.375-9.375 9.375zm0-13.125c-2.07 0-3.75 1.68-3.75 3.75 0 2.07 1.68 3.75 3.75 3.75 2.07 0 3.75-1.68 3.75-3.75 0-2.07-1.68-3.75-3.75-3.75zM105 90h-5.625v-4.688c0-2.583-2.104-4.687-4.688-4.687H81.564c-2.584 0-4.688 2.104-4.688 4.688V90H71.25v-4.688C71.25 79.624 75.874 75 81.563 75h13.124C100.377 75 105 79.624 105 85.313V90z"/>
                    <path fill="#333" d="M0 84.375L120 84.375 120 90 0 90z"/>
                </g>
            </g>
        </g>
    </g>
</svg>
