<svg xmlns="http://www.w3.org/2000/svg" width="40" height="38" viewBox="0 0 40 38">
    <g fill="none" fill-rule="evenodd">
        <g fill-rule="nonzero">
            <g>
                <g>
                    <g transform="translate(-443 -361) translate(118 219) translate(305 121) translate(20 21)">
                        <path fill="#F3F3F1" d="M30.833 10.326h-25c-2.531 0-4.583-2.034-4.583-4.543 0-2.51 2.052-4.544 4.583-4.544h25c2.532 0 4.584 2.034 4.584 4.544s-2.052 4.543-4.584 4.543z"/>
                        <path fill="#99EAF6" d="M30.833 19.413h-25c-2.531 0-4.583-2.034-4.583-4.543 0-2.51 2.052-4.544 4.583-4.544h25c2.532 0 4.584 2.034 4.584 4.544s-2.052 4.543-4.584 4.543z"/>
                        <path fill="#F3F3F1" d="M30.833 28.5h-25c-2.531 0-4.583-2.034-4.583-4.543 0-2.51 2.052-4.544 4.583-4.544h25c2.532 0 4.584 2.034 4.584 4.544S33.365 28.5 30.833 28.5z"/>
                        <ellipse cx="29.167" cy="27.261" fill="#99EAF6" rx="9.583" ry="9.5"/>
                        <path fill="#46CEE2" d="M23.333 27.26c0-4.609 3.314-8.45 7.709-9.314-.607-.119-1.234-.185-1.875-.185-5.294 0-9.584 4.253-9.584 9.5s4.29 9.5 9.584 9.5c.641 0 1.268-.065 1.875-.185-4.395-.864-7.709-4.706-7.709-9.315zM5 14.87c0-2.51 2.052-4.544 4.583-4.544h-3.75c-2.531 0-4.583 2.034-4.583 4.544s2.052 4.543 4.583 4.543h3.75C7.052 19.413 5 17.379 5 14.87z"/>
                        <path fill="#D5DBE1" d="M5 5.783c0-2.51 2.052-4.544 4.583-4.544h-3.75c-2.531 0-4.583 2.034-4.583 4.544s2.052 4.543 4.583 4.543h3.75C7.052 10.326 5 8.292 5 5.783zM5 23.957c0-2.51 2.052-4.544 4.583-4.544h-3.75c-2.531 0-4.583 2.034-4.583 4.544S3.302 28.5 5.833 28.5h3.75C7.052 28.5 5 26.466 5 23.957z"/>
                        <path fill="#39414C" d="M29.167 33.043c-.32 0-.64-.12-.884-.363l-3.75-3.717 1.769-1.753 2.866 2.841 2.867-2.841 1.768 1.753-3.75 3.717c-.246.243-.566.363-.886.363z"/>
                        <path fill="#39414C" d="M27.917 22.717L30.417 22.717 30.417 30.978 27.917 30.978z"/>
                        <path fill="#39414C" d="M29.167 38c-5.974 0-10.834-4.818-10.834-10.74 0-5.92 4.86-10.738 10.834-10.738C35.14 16.522 40 21.339 40 27.26 40 33.182 35.14 38 29.167 38zm0-19c-4.595 0-8.334 3.706-8.334 8.26 0 4.556 3.739 8.262 8.334 8.262S37.5 31.816 37.5 27.26 33.762 19 29.167 19zM30.833 11.565h-25C2.617 11.565 0 8.971 0 5.783 0 2.593 2.617 0 5.833 0h25c3.217 0 5.834 2.594 5.834 5.783 0 3.188-2.617 5.782-5.834 5.782zm-25-9.087C3.995 2.478 2.5 3.96 2.5 5.783c0 1.822 1.495 3.304 3.333 3.304h25c1.839 0 3.334-1.482 3.334-3.304 0-1.823-1.495-3.305-3.334-3.305h-25z"/>
                        <ellipse cx="8.333" cy="5.783" fill="#39414C" rx="1.667" ry="1.652"/>
                        <ellipse cx="15" cy="5.783" fill="#39414C" rx="1.667" ry="1.652"/>
                        <path fill="#39414C" d="M16.45 20.652H5.833C2.617 20.652 0 18.058 0 14.87c0-1.535.628-3.026 1.723-4.091 1.059-1.07 2.562-1.692 4.11-1.692h25c2.639 0 4.952 1.758 5.625 4.276l-2.415.636c-.385-1.434-1.705-2.434-3.21-2.434h-25c-.893 0-1.725.344-2.341.967-.645.628-.992 1.452-.992 2.338 0 1.822 1.495 3.304 3.333 3.304H16.45v2.478z"/>
                        <ellipse cx="8.333" cy="14.87" fill="#39414C" rx="1.667" ry="1.652"/>
                        <ellipse cx="15" cy="14.87" fill="#39414C" rx="1.667" ry="1.652"/>
                        <path fill="#39414C" d="M13.75 29.74H5.833C2.617 29.74 0 27.144 0 23.956c0-1.535.628-3.026 1.723-4.091 1.059-1.07 2.562-1.692 4.11-1.692H16.45v2.478H5.833c-.893 0-1.725.344-2.341.967-.645.628-.992 1.452-.992 2.338 0 1.822 1.495 3.304 3.333 3.304h7.917v2.478z"/>
                        <ellipse cx="8.333" cy="23.957" fill="#39414C" rx="1.667" ry="1.652"/>
                    </g>
                </g>
            </g>
        </g>
    </g>
</svg>
