<svg xmlns="http://www.w3.org/2000/svg" width="20" height="18" viewBox="0 0 20 18">
    <g fill="none" fill-rule="evenodd">
        <g fill="#000" fill-rule="nonzero">
            <g>
                <g>
                    <g>
                        <path d="M.005 13.727h19.086V18H.005v-4.273zm15.127-9.64l2.863-2.861-1.09-1.09-3.136 3.133c-1.227-.681-2.727-1.09-4.226-1.09-1.5 0-3 .409-4.226.954L2.18 0l-1.09 1.226 2.862 2.86C1.5 5.72 0 8.581 0 11.713v1.362h19.086v-1.362c0-3.132-1.5-5.993-3.954-7.627zM5.453 10.35c-.818 0-1.363-.544-1.363-1.362 0-.817.545-1.362 1.363-1.362s1.363.545 1.363 1.362c0 .818-.545 1.362-1.363 1.362zm8.18 0c-.818 0-1.364-.544-1.364-1.362 0-.817.546-1.362 1.364-1.362.817 0 1.363.545 1.363 1.362 0 .818-.546 1.362-1.363 1.362z" transform="translate(-451 -307) translate(429 294) translate(22 12) translate(0 1)"/>
                    </g>
                </g>
            </g>
        </g>
    </g>
</svg>
