<svg xmlns="http://www.w3.org/2000/svg" width="90" height="91" viewBox="0 0 90 91">
    <g fill="none" fill-rule="evenodd">
        <g fill-rule="nonzero">
            <g>
                <g transform="translate(-675 -629) translate(590 584) translate(85 45)">
                    <path fill="#00CAE8" d="M34.575 11.744c-2.813-5.298-8.4-8.965-14.925-8.965-9.3 0-16.837 7.446-16.837 16.634 0 6.446 3.712 11.966 9.074 14.745l22.688-22.414zM78.112 34.158c5.363-2.779 9.076-8.299 9.076-14.745 0-9.188-7.538-16.634-16.838-16.634-6.525 0-12.112 3.667-14.925 8.965l22.688 22.414z"/>
                    <ellipse cx="45" cy="44.457" fill="#F3F3F1" rx="34.688" ry="34.269"/>
                    <path fill="#008DA2" d="M11.25 19.413c0-7.765 5.407-14.23 12.686-16.064-1.369-.36-2.797-.57-4.286-.57-9.3 0-16.837 7.446-16.837 16.634 0 6.446 3.712 11.966 9.074 14.745l3.71-3.664c-2.678-2.934-4.347-6.791-4.347-11.081z"/>
                    <path fill="#D5DBE1" d="M18.75 44.457c0-17.512 13.305-31.931 30.469-33.991-1.388-.167-2.787-.278-4.219-.278-19.159 0-34.688 15.341-34.688 34.269 0 18.928 15.53 34.269 34.688 34.269 1.432 0 2.831-.111 4.219-.278C32.055 76.388 18.75 61.97 18.75 44.457z"/>
                    <path fill="#008DA2" d="M78.075 34.12l.037.038c1.797-.93 3.38-2.19 4.73-3.664l-18.98-18.75c2.172-4.09 6.004-7.187 10.64-8.395-1.336-.337-2.712-.57-4.152-.57-6.525 0-12.112 3.667-14.925 8.965l.038.037c10.74 3.357 19.214 11.73 22.612 22.34z"/>
                    <path fill="#333" d="M45 47.236H25.312v-5.558h16.875v-16.67h5.626v19.449c0 1.534-1.26 2.779-2.813 2.779z"/>
                    <path fill="#333" d="M45 81.505c-20.677 0-37.5-16.62-37.5-37.048S24.323 7.41 45 7.41s37.5 16.619 37.5 37.047c0 20.428-16.823 37.048-37.5 37.048zm0-68.538c-17.576 0-31.875 14.126-31.875 31.49 0 17.364 14.299 31.49 31.875 31.49s31.875-14.126 31.875-31.49c0-17.364-14.299-31.49-31.875-31.49z"/>
                    <path fill="#333" d="M10.579 36.618C4.054 33.235 0 26.645 0 19.413 0 8.71 8.816 0 19.65 0c7.32 0 13.991 4.005 17.415 10.451l-4.98 2.582C29.636 8.421 24.87 5.557 19.65 5.557c-7.736 0-14.025 6.217-14.025 13.856 0 5.157 2.899 9.866 7.571 12.285l-2.617 4.92zM79.421 36.618l-2.614-4.92c4.67-2.42 7.572-7.128 7.572-12.285 0-7.643-6.293-13.856-14.025-13.856-5.22 0-9.986 2.864-12.435 7.48l-4.98-2.582C56.359 4.005 63.03 0 70.35 0 81.184 0 90 8.71 90 19.413c0 7.232-4.054 13.822-10.579 17.205z"/>
                    <path fill="#333" d="M65.086 69.202L70.691 69.233 70.807 90.176 65.203 90.145z" transform="rotate(-33.166 67.947 79.69)"/>
                    <path fill="#333" d="M11.548 76.886L32.49 77.003 32.521 82.607 11.579 82.49z" transform="rotate(-56.834 22.035 79.747)"/>
                </g>
            </g>
        </g>
    </g>
</svg>
