<svg xmlns="http://www.w3.org/2000/svg" width="100" height="75" viewBox="0 0 100 75">
    <g fill="none" fill-rule="evenodd">
        <g fill-rule="nonzero">
            <g>
                <g>
                    <path fill="#F3F3F1" d="M77.29 2.527c-2.152 0-4.085.87-5.52 2.27-1.404 1.43-2.277 3.358-2.277 5.504v55.977c0 3.42-2.807 6.22-6.238 6.22H21.15V31.759c.749.187 1.528.311 2.34.311 4.74 0 8.576-3.825 8.576-8.552V2.527H77.29z" transform="translate(-766 -339) translate(673 339) translate(93)"/>
                    <path fill="#99EAF6" d="M69.493 14.966h15.595v-4.665c0-4.294-3.49-7.774-7.798-7.774-4.307 0-7.797 3.48-7.797 7.774v4.665zM61.696 72.498H21.15c-3.446 0-6.238-2.784-6.238-6.22v-9.33H53.9v7.775c0 4.295 3.49 7.775 7.797 7.775z" transform="translate(-766 -339) translate(673 339) translate(93)"/>
                    <path fill="#46CEE2" d="M80.8 3.394c-1.061-.535-2.24-.867-3.51-.867-4.307 0-7.797 3.48-7.797 7.774v4.665h7.018v-4.665c0-3.029 1.753-5.622 4.288-6.907zM21.93 66.278v-9.33h-7.018v9.33c0 3.436 2.792 6.22 6.238 6.22h7.018c-3.447 0-6.238-2.784-6.238-6.22z" transform="translate(-766 -339) translate(673 339) translate(93)"/>
                    <path fill="#D5DBE1" d="M30.507 32.07c4.74 0 8.577-3.825 8.577-8.552V2.527h-7.018v20.991c0 4.727-3.836 8.552-8.577 8.552-.81 0-1.59-.124-2.339-.311v25.19h7.018v-25.19c.748.187 1.528.311 2.339.311z" transform="translate(-766 -339) translate(673 339) translate(93)"/>
                    <path fill="#39414C" d="M23.49 34.402c-6.02 0-10.917-4.882-10.917-10.884V7.191c0-3.856 3.15-6.997 7.018-6.997 3.867 0 7.017 3.141 7.017 6.997v17.882H21.93V7.19c0-1.284-1.051-2.332-2.34-2.332-1.287 0-2.339 1.048-2.339 2.332v16.327c0 3.43 2.798 6.22 6.238 6.22 3.44 0 6.238-2.79 6.238-6.22V.194h4.678v23.324c0 6.002-4.896 10.884-10.916 10.884zM18.811 41.213L23.489 41.213 23.489 57.073 18.811 57.073zM41.423.194L77.29.194 77.29 4.859 41.423 4.859z" transform="translate(-766 -339) translate(673 339) translate(93)"/>
                    <path fill="#39414C" d="M85.088 17.298H69.493c-1.291 0-2.339-1.045-2.339-2.332v-4.665C67.154 4.728 71.701.194 77.29.194c5.59 0 10.137 4.534 10.137 10.107v4.665c0 1.287-1.048 2.332-2.34 2.332zm-13.256-4.664H82.75V10.3c0-3-2.449-5.442-5.459-5.442s-5.458 2.441-5.458 5.442v2.333z" transform="translate(-766 -339) translate(673 339) translate(93)"/>
                    <path fill="#39414C" d="M62.476 74.83H21.15c-4.731 0-8.577-3.834-8.577-8.552v-9.199c0-1.287 1.048-2.332 2.34-2.332h38.986c1.29 0 2.339 1.045 2.339 2.332v7.644c0 3.001 2.448 5.442 5.458 5.442 3.01 0 5.458-2.441 5.458-5.442V14.966h4.678v49.757c0 5.312-4.13 9.678-9.356 10.076v.03zM17.25 59.41v6.867c0 2.143 1.75 3.887 3.9 3.887h32.008c-1.01-1.573-1.6-3.44-1.6-5.442v-5.312H17.251z" transform="translate(-766 -339) translate(673 339) translate(93)"/>
                    <path fill="#39414C" d="M0.097 70.165L99.903 70.165 99.903 74.83 0.097 74.83z" transform="translate(-766 -339) translate(673 339) translate(93)"/>
                </g>
            </g>
        </g>
    </g>
</svg>
