<svg xmlns="http://www.w3.org/2000/svg" width="122" height="20" viewBox="0 0 122 20">
    <g fill="none" fill-rule="evenodd">
        <g fill="#000">
            <g>
                <g>
                    <path d="M109.25 15.486l2.193-.434c.488 1.785 2.03 2.678 4.623 2.678.956 0 1.766-.205 2.43-.616.662-.411.994-.99.994-1.737 0-1.11-.845-1.816-2.533-2.114l-3.114-.567c-1.22-.225-2.19-.664-2.912-1.318-.721-.655-1.082-1.519-1.082-2.594 0-1.187.493-2.18 1.477-2.98.985-.799 2.312-1.199 3.98-1.199 3.208 0 5.189 1.202 5.94 3.604l-2.107.435c-.605-1.477-1.849-2.216-3.73-2.216-.937 0-1.706.185-2.305.553-.6.37-.9.885-.9 1.548 0 1.046.766 1.704 2.298 1.975l2.88.496c3.014.524 4.521 1.924 4.521 4.198 0 1.302-.56 2.353-1.682 3.154-1.122.8-2.614 1.2-4.477 1.2-3.501 0-5.667-1.355-6.495-4.066M107.898 19.16L105.516 19.16 101.198 11.253 97.994 14.785 97.994 19.16 95.696 19.16 95.696.556 97.994.556 97.994 12.29 104.857 4.998 107.312 4.998 102.697 9.97zM87.733 19.16h-2.297V4.998h2.019v3.31c.712-1.562 1.426-2.574 2.143-3.036.717-.464 1.45-.695 2.201-.695.235 0 .537.02.908.056v2.104h-.468c-1.268 0-2.321.454-3.16 1.36-.84.906-1.288 2.099-1.346 3.575v7.488zM75.303 17.73c1.258 0 2.31-.463 3.16-1.388.848-.926 1.272-2.365 1.272-4.319 0-1.963-.445-3.386-1.335-4.27-.891-.883-1.934-1.325-3.128-1.325-1.226 0-2.264.446-3.113 1.34-.849.892-1.273 2.306-1.273 4.24 0 2.048.424 3.513 1.273 4.396.85.884 1.897 1.326 3.144 1.326m-.189 1.823c-2.18 0-3.88-.72-5.1-2.161-1.221-1.441-1.832-3.229-1.832-5.362 0-2.255.687-4.056 2.06-5.403 1.372-1.348 3.08-2.022 5.124-2.022 2.19 0 3.916.709 5.18 2.127 1.262 1.417 1.893 3.188 1.893 5.312 0 2.208-.68 4.012-2.043 5.41-1.362 1.4-3.123 2.099-5.282 2.099M66.084 4.998L62.548 15.599 59.006 4.998 57.219 4.998 53.948 15.556 50.52 4.998 48.066 4.998 52.795 19.16 54.804 19.16 58.03 8.644 61.543 19.16 63.526 19.16 68.055 4.998zM31.314 15.735h6.507c1.365 0 1.888-1.006 1.888-2.169 0-1.472-.774-2.22-2.343-2.22h-6.052v4.39zm0-7.591h6.143c1.024 0 1.66-.62 1.66-1.989 0-1.161-.454-1.988-2.275-1.988h-5.528v3.977zM26.899.81h12.196c2.366 0 4.573 1.24 4.573 4.648 0 1.446-.637 3.15-2.162 3.693v.052c1.912.335 2.89 2.505 2.89 4.467 0 2.452-1.024 5.577-5.915 5.577H26.899V.81zM19.209 19.248L24.133 19.248 24.133.81 19.209.81zM7.971.81L0 19.247 5.306 19.247 5.338 19.163 11.513 4.292 11.513 19.247 16.438 19.247 16.438.81z" transform="translate(-440 -232) translate(420 162) translate(20 70)"/>
                </g>
            </g>
        </g>
    </g>
</svg>
