<svg xmlns="http://www.w3.org/2000/svg" width="28" height="28" viewBox="0 0 28 28">
    <g fill="none" fill-rule="evenodd">
        <g>
            <g>
                <path d="M0 0H28V28H0z" transform="translate(-266 -26) translate(266 26)"/>
                <path fill="#0C243B" fill-rule="nonzero" d="M4.714 8.214h18.572c.394 0 .714-.32.714-.714V5.714C24 5.32 23.68 5 23.286 5H4.714C4.32 5 4 5.32 4 5.714V7.5c0 .395.32.714.714.714zm0 7.143h18.572c.394 0 .714-.32.714-.714v-1.786c0-.394-.32-.714-.714-.714H4.714c-.394 0-.714.32-.714.714v1.786c0 .394.32.714.714.714zm0 7.143h18.572c.394 0 .714-.32.714-.714V20c0-.395-.32-.714-.714-.714H4.714c-.394 0-.714.32-.714.714v1.786c0 .394.32.714.714.714z" transform="translate(-266 -26) translate(266 26)"/>
            </g>
        </g>
    </g>
</svg>
