<svg xmlns="http://www.w3.org/2000/svg" width="28" height="28" viewBox="0 0 28 28">
    <g fill="none" fill-rule="evenodd">
        <g>
            <g>
                <path d="M0 0H28V28H0z" transform="translate(-426 -26) translate(426 26)"/>
                <path fill="#0C243B" fill-rule="nonzero" d="M17.412 14l5.117-5.117c.628-.628.628-1.646 0-2.275l-1.137-1.137c-.628-.628-1.646-.628-2.275 0L14 10.588 8.883 5.471c-.628-.628-1.646-.628-2.275 0L5.471 6.608c-.628.628-.628 1.646 0 2.275L10.588 14l-5.117 5.117c-.628.628-.628 1.646 0 2.275l1.137 1.137c.628.628 1.647.628 2.275 0L14 17.412l5.117 5.117c.628.628 1.647.628 2.275 0l1.137-1.137c.628-.628.628-1.646 0-2.275L17.412 14z" transform="translate(-426 -26) translate(426 26)"/>
            </g>
        </g>
    </g>
</svg>
